<svg width="32" height="32" viewBox="0 0 32 32" fill="none" xmlns="http://www.w3.org/2000/svg">
<path d="M10.666 7.66663C10.1193 7.66663 9.66602 7.21329 9.66602 6.66663V2.66663C9.66602 2.11996 10.1193 1.66663 10.666 1.66663C11.2127 1.66663 11.666 2.11996 11.666 2.66663V6.66663C11.666 7.21329 11.2127 7.66663 10.666 7.66663Z" fill="#292D32"/>
<path d="M21.334 7.66663C20.7873 7.66663 20.334 7.21329 20.334 6.66663V2.66663C20.334 2.11996 20.7873 1.66663 21.334 1.66663C21.8807 1.66663 22.334 2.11996 22.334 2.66663V6.66663C22.334 7.21329 21.8807 7.66663 21.334 7.66663Z" fill="#292D32"/>
<path d="M11.3333 19.3333C10.9867 19.3333 10.64 19.1867 10.3867 18.9467C10.3333 18.88 10.2667 18.8133 10.2267 18.7467C10.1733 18.6667 10.1333 18.5867 10.1067 18.5067C10.0667 18.4267 10.04 18.3467 10.0267 18.2667C10.0133 18.1734 10 18.08 10 18C10 17.6533 10.1467 17.3067 10.3867 17.0533C10.88 16.56 11.7733 16.56 12.28 17.0533C12.52 17.3067 12.6667 17.6533 12.6667 18C12.6667 18.08 12.6533 18.1734 12.64 18.2667C12.6267 18.3467 12.6 18.4267 12.56 18.5067C12.5333 18.5867 12.4933 18.6667 12.44 18.7467C12.3867 18.8133 12.3333 18.88 12.28 18.9467C12.0267 19.1867 11.68 19.3333 11.3333 19.3333Z" fill="#292D32"/>
<path d="M15.9993 19.3333C15.826 19.3333 15.6527 19.2933 15.4927 19.2266C15.3193 19.16 15.1727 19.0666 15.0527 18.9466C14.9993 18.8799 14.9327 18.8133 14.8927 18.7466C14.8393 18.6666 14.7994 18.5866 14.7727 18.5066C14.7327 18.4266 14.706 18.3466 14.6927 18.2666C14.6794 18.1733 14.666 18.08 14.666 18C14.666 17.6533 14.8127 17.3066 15.0527 17.0533C15.1727 16.9333 15.3193 16.8399 15.4927 16.7733C15.9727 16.5599 16.5727 16.68 16.946 17.0533C17.186 17.3066 17.3327 17.6533 17.3327 18C17.3327 18.08 17.3193 18.1733 17.306 18.2666C17.2927 18.3466 17.266 18.4266 17.226 18.5066C17.1993 18.5866 17.1594 18.6666 17.106 18.7466C17.0527 18.8133 16.9994 18.8799 16.946 18.9466C16.6927 19.1866 16.346 19.3333 15.9993 19.3333Z" fill="#292D32"/>
<path d="M11.3333 24.0001C10.9733 24.0001 10.64 23.8534 10.3867 23.6134C10.1467 23.36 10 23.0134 10 22.6667C10 22.3201 10.1467 21.9734 10.3867 21.7201C10.4533 21.6667 10.52 21.6001 10.5867 21.5601C10.6667 21.5067 10.7467 21.4667 10.8267 21.44C10.9067 21.4 10.9867 21.3734 11.0667 21.36C11.3333 21.3067 11.6 21.3334 11.84 21.44C12.0133 21.5067 12.1467 21.6001 12.28 21.7201C12.52 21.9734 12.6667 22.3201 12.6667 22.6667C12.6667 23.0134 12.52 23.36 12.28 23.6134C12.1467 23.7334 12.0133 23.8267 11.84 23.8934C11.68 23.9601 11.5067 24.0001 11.3333 24.0001Z" fill="#292D32"/>
<path d="M27.3327 13.12H4.66602C4.11935 13.12 3.66602 12.6667 3.66602 12.12C3.66602 11.5733 4.11935 11.12 4.66602 11.12H27.3327C27.8793 11.12 28.3327 11.5733 28.3327 12.12C28.3327 12.6667 27.8793 13.12 27.3327 13.12Z" fill="#292D32"/>
<path d="M23.9993 31.6667C20.506 31.6667 17.666 28.8267 17.666 25.3333C17.666 21.84 20.506 19 23.9993 19C27.4927 19 30.3327 21.84 30.3327 25.3333C30.3327 28.8267 27.4927 31.6667 23.9993 31.6667ZM23.9993 21C21.6127 21 19.666 22.9467 19.666 25.3333C19.666 27.72 21.6127 29.6667 23.9993 29.6667C26.386 29.6667 28.3327 27.72 28.3327 25.3333C28.3327 22.9467 26.386 21 23.9993 21Z" fill="#292D32"/>
<path d="M25.4272 27.8133C25.1739 27.8133 24.9205 27.72 24.7205 27.52L21.9072 24.7066C21.5205 24.32 21.5205 23.68 21.9072 23.2933C22.2939 22.9066 22.9339 22.9066 23.3205 23.2933L26.1339 26.1066C26.5205 26.4933 26.5205 27.1333 26.1339 27.52C25.9339 27.72 25.6805 27.8133 25.4272 27.8133Z" fill="#292D32"/>
<path d="M22.5728 27.8534C22.3195 27.8534 22.0662 27.76 21.8662 27.56C21.4795 27.1734 21.4795 26.5333 21.8662 26.1466L24.6795 23.3333C25.0662 22.9467 25.7062 22.9467 26.0929 23.3333C26.4795 23.72 26.4795 24.36 26.0929 24.7467L23.2795 27.56C23.0795 27.7467 22.8262 27.8534 22.5728 27.8534Z" fill="#292D32"/>
<path d="M20.4933 30.3333H10.6667C5.8 30.3333 3 27.5333 3 22.6666V11.3333C3 6.46663 5.8 3.66663 10.6667 3.66663H21.3333C26.2 3.66663 29 6.46663 29 11.3333V21.8133C29 22.2266 28.7467 22.6 28.3467 22.7466C27.96 22.8933 27.52 22.7866 27.24 22.4666C26.4133 21.5333 25.2267 21 23.9867 21C21.6 21 19.6533 22.9466 19.6533 25.3333C19.6533 26.12 19.8667 26.8933 20.28 27.56C20.5067 27.96 20.8 28.2933 21.12 28.5733C21.44 28.8399 21.56 29.28 21.4133 29.68C21.2933 30.0666 20.92 30.3333 20.4933 30.3333ZM10.6667 5.66663C6.85333 5.66663 5 7.51996 5 11.3333V22.6666C5 26.48 6.85333 28.3333 10.6667 28.3333H18.4267C17.9333 27.4266 17.6667 26.4 17.6667 25.3333C17.6667 21.84 20.5067 19 24 19C25.0533 19 26.0933 19.2666 27 19.76V11.3333C27 7.51996 25.1467 5.66663 21.3333 5.66663H10.6667Z" fill="#292D32"/>
</svg>
