<svg width="24" height="25" viewBox="0 0 24 25" fill="none" xmlns="http://www.w3.org/2000/svg">
<path d="M21.2695 9.67981C20.9795 9.21981 20.6695 8.78981 20.3495 8.38981C19.9795 7.91981 19.2795 7.87981 18.8595 8.29981L15.8595 11.2998C16.0795 11.9598 16.1195 12.7198 15.9195 13.5098C15.5695 14.9198 14.4295 16.0598 13.0195 16.4098C12.2295 16.6098 11.4695 16.5698 10.8095 16.3498C10.8095 16.3498 9.37946 17.7798 8.34946 18.8098C7.84946 19.3098 8.00946 20.1898 8.67946 20.4498C9.74946 20.8598 10.8595 21.0698 11.9995 21.0698C13.7795 21.0698 15.5095 20.5498 17.0895 19.5798C18.6995 18.5798 20.1495 17.1098 21.3195 15.2398C22.2695 13.7298 22.2195 11.1898 21.2695 9.67981Z" fill="#696969"/>
<path d="M14.0206 10.4801L9.98062 14.5201C9.47062 14.0001 9.14062 13.2801 9.14062 12.5001C9.14062 10.9301 10.4206 9.64014 12.0006 9.64014C12.7806 9.64014 13.5006 9.97014 14.0206 10.4801Z" fill="#696969"/>
<path d="M18.25 6.25018L14.86 9.64018C14.13 8.90018 13.12 8.46018 12 8.46018C9.76 8.46018 7.96 10.2702 7.96 12.5002C7.96 13.6202 8.41 14.6302 9.14 15.3602L5.76 18.7502H5.75C4.64 17.8502 3.62 16.7002 2.75 15.3402C1.75 13.7702 1.75 11.2202 2.75 9.65018C3.91 7.83017 5.33 6.40018 6.91 5.42018C8.49 4.46018 10.22 3.93018 12 3.93018C14.23 3.93018 16.39 4.75018 18.25 6.25018Z" fill="#696969"/>
<path d="M14.8601 12.5001C14.8601 14.0701 13.5801 15.3601 12.0001 15.3601C11.9401 15.3601 11.8901 15.3601 11.8301 15.3401L14.8401 12.3301C14.8601 12.3901 14.8601 12.4401 14.8601 12.5001Z" fill="#696969"/>
<path d="M21.7709 2.72988C21.4709 2.42988 20.9809 2.42988 20.6809 2.72988L2.23086 21.1899C1.93086 21.4899 1.93086 21.9799 2.23086 22.2799C2.38086 22.4199 2.57086 22.4999 2.77086 22.4999C2.97086 22.4999 3.16086 22.4199 3.31086 22.2699L21.7709 3.80988C22.0809 3.50988 22.0809 3.02988 21.7709 2.72988Z" fill="#696969"/>
</svg>
