<svg width="1920" height="619" viewBox="0 0 1920 619" fill="none" xmlns="http://www.w3.org/2000/svg">
<path d="M1920 154.75L1411 0H1920V154.75Z" stroke="#FFD6A3" stroke-width="2" stroke-linejoin="round"/>
<path d="M1411 0V77.375L1156.5 0H1411Z" stroke="#FFD6A3" stroke-width="2" stroke-linejoin="round"/>
<path d="M1156.5 0H902L1156.5 77.375V0Z" stroke="#FFD6A3" stroke-width="2" stroke-linejoin="round"/>
<path d="M1156.5 154.75H902L1156.5 77.375V154.75Z" stroke="#FFD6A3" stroke-width="2" stroke-linejoin="round"/>
<path d="M1411 154.75H1156.5L1411 77.375V154.75Z" stroke="#FFD6A3" stroke-width="2" stroke-linejoin="round"/>
<path d="M1411 154.75V232.125H1156.5L1411 154.75Z" stroke="#FFD6A3" stroke-width="2" stroke-linejoin="round"/>
<path d="M1029.25 193.438H1156.5L1029.25 154.75V193.438Z" stroke="#FFD6A3" stroke-width="2" stroke-linejoin="round"/>
<path d="M1029.25 193.438V154.75H902L1029.25 193.438Z" stroke="#FFD6A3" stroke-width="2" stroke-linejoin="round"/>
<path d="M902 193.438L1029.25 232.125V193.438H902Z" stroke="#FFD6A3" stroke-width="2" stroke-linejoin="round"/>
<path d="M1156.5 232.125V193.438L1029.25 232.125H1156.5Z" stroke="#FFD6A3" stroke-width="2" stroke-linejoin="round"/>
<path d="M1029.25 270.813L1156.5 232.125H1029.25V270.813Z" stroke="#FFD6A3" stroke-width="2" stroke-linejoin="round"/>
<path d="M902 270.813H1029.25V232.125L902 270.813Z" stroke="#FFD6A3" stroke-width="2" stroke-linejoin="round"/>
<path d="M1029.25 309.5H902L1029.25 270.812V309.5Z" stroke="#FFD6A3" stroke-width="2" stroke-linejoin="round"/>
<path d="M1156.5 270.812V309.5L1029.25 270.812H1156.5Z" stroke="#FFD6A3" stroke-width="2" stroke-linejoin="round"/>
<path d="M1411 232.125L1283.75 270.813V232.125H1411Z" stroke="#FFD6A3" stroke-width="2" stroke-linejoin="round"/>
<path d="M1283.75 270.813L1156.5 232.125H1283.75V270.813Z" stroke="#FFD6A3" stroke-width="2" stroke-linejoin="round"/>
<path d="M1283.75 270.812V309.5L1156.5 270.812H1283.75Z" stroke="#FFD6A3" stroke-width="2" stroke-linejoin="round"/>
<path d="M1411 309.5L1283.75 270.812H1411V309.5Z" stroke="#FFD6A3" stroke-width="2" stroke-linejoin="round"/>
<path d="M1920 232.125V154.75H1665.5L1920 232.125Z" stroke="#FFD6A3" stroke-width="2" stroke-linejoin="round"/>
<path d="M1665.5 154.75V232.125L1411 154.75H1665.5Z" stroke="#FFD6A3" stroke-width="2" stroke-linejoin="round"/>
<path d="M1665.5 232.125V309.5H1411L1665.5 232.125Z" stroke="#FFD6A3" stroke-width="2" stroke-linejoin="round"/>
<path d="M1920 232.125L1665.5 309.5H1920V232.125Z" stroke="#FFD6A3" stroke-width="2" stroke-linejoin="round"/>
<path d="M902 77.375V0H647.5L902 77.375Z" stroke="#FFD6A3" stroke-width="2" stroke-linejoin="round"/>
<path d="M647.5 77.375H393V0L647.5 77.375Z" stroke="#FFD6A3" stroke-width="2" stroke-linejoin="round"/>
<path d="M393 154.75V77.375L647.5 154.75H393Z" stroke="#FFD6A3" stroke-width="2" stroke-linejoin="round"/>
<path d="M902 154.75H647.5V77.375L902 154.75Z" stroke="#FFD6A3" stroke-width="2" stroke-linejoin="round"/>
<path d="M393 77.375V0H138.5L393 77.375Z" stroke="#FFD6A3" stroke-width="2" stroke-linejoin="round"/>
<path d="M138.5 0L-116 77.375V0H138.5Z" stroke="#FFD6A3" stroke-width="2" stroke-linejoin="round"/>
<path d="M138.5 154.75V77.375H-116L138.5 154.75Z" stroke="#FFD6A3" stroke-width="2" stroke-linejoin="round"/>
<path d="M138.5 77.375H393V154.75L138.5 77.375Z" stroke="#FFD6A3" stroke-width="2" stroke-linejoin="round"/>
<path d="M393 232.125L138.5 154.75H393V232.125Z" stroke="#FFD6A3" stroke-width="2" stroke-linejoin="round"/>
<path d="M-116 232.125H138.5V154.75L-116 232.125Z" stroke="#FFD6A3" stroke-width="2" stroke-linejoin="round"/>
<path d="M138.5 309.5H-116V232.125L138.5 309.5Z" stroke="#FFD6A3" stroke-width="2" stroke-linejoin="round"/>
<path d="M393 232.125V309.5H138.5L393 232.125Z" stroke="#FFD6A3" stroke-width="2" stroke-linejoin="round"/>
<path d="M902 193.438V154.75L774.75 193.438H902Z" stroke="#FFD6A3" stroke-width="2" stroke-linejoin="round"/>
<path d="M774.75 154.75V193.438H647.5L774.75 154.75Z" stroke="#FFD6A3" stroke-width="2" stroke-linejoin="round"/>
<path d="M647.5 193.438L774.75 232.125V193.438H647.5Z" stroke="#FFD6A3" stroke-width="2" stroke-linejoin="round"/>
<path d="M902 232.125V193.438H774.75L902 232.125Z" stroke="#FFD6A3" stroke-width="2" stroke-linejoin="round"/>
<path d="M393 154.75L647.5 232.125H393V154.75Z" stroke="#FFD6A3" stroke-width="2" stroke-linejoin="round"/>
<path d="M647.5 232.125H393L647.5 309.5V232.125Z" stroke="#FFD6A3" stroke-width="2" stroke-linejoin="round"/>
<path d="M902 232.125V309.5H647.5L902 232.125Z" stroke="#FFD6A3" stroke-width="2" stroke-linejoin="round"/>
<path d="M902 309.5L774.75 348.188H902V309.5Z" stroke="#FFD6A3" stroke-width="2" stroke-linejoin="round"/>
<path d="M774.75 309.5L647.5 348.188H774.75V309.5Z" stroke="#FFD6A3" stroke-width="2" stroke-linejoin="round"/>
<path d="M774.75 348.188H647.5V386.875L774.75 348.188Z" stroke="#FFD6A3" stroke-width="2" stroke-linejoin="round"/>
<path d="M774.75 386.875H902L774.75 348.188V386.875Z" stroke="#FFD6A3" stroke-width="2" stroke-linejoin="round"/>
<path d="M393 386.875V309.5L647.5 386.875H393Z" stroke="#FFD6A3" stroke-width="2" stroke-linejoin="round"/>
<path d="M647.5 464.25V386.875L393 464.25H647.5Z" stroke="#FFD6A3" stroke-width="2" stroke-linejoin="round"/>
<path d="M902 386.875V464.25L647.5 386.875H902Z" stroke="#FFD6A3" stroke-width="2" stroke-linejoin="round"/>
<path d="M393 309.5L265.75 348.188V309.5H393Z" stroke="#FFD6A3" stroke-width="2" stroke-linejoin="round"/>
<path d="M265.75 348.188H138.5L265.75 309.5V348.188Z" stroke="#FFD6A3" stroke-width="2" stroke-linejoin="round"/>
<path d="M265.75 386.875V348.188L138.5 386.875H265.75Z" stroke="#FFD6A3" stroke-width="2" stroke-linejoin="round"/>
<path d="M265.75 386.875H393L265.75 348.188V386.875Z" stroke="#FFD6A3" stroke-width="2" stroke-linejoin="round"/>
<path d="M138.5 309.5V386.875H-116L138.5 309.5Z" stroke="#FFD6A3" stroke-width="2" stroke-linejoin="round"/>
<path d="M-116 464.25V386.875H138.5L-116 464.25Z" stroke="#FFD6A3" stroke-width="2" stroke-linejoin="round"/>
<path d="M393 464.25H138.5L393 386.875V464.25Z" stroke="#FFD6A3" stroke-width="2" stroke-linejoin="round"/>
<path d="M-116 619H393V464.25L-116 619Z" stroke="#FFD6A3" stroke-width="2" stroke-linejoin="round"/>
<path d="M902 541.625V464.25L647.5 541.625H902Z" stroke="#FFD6A3" stroke-width="2" stroke-linejoin="round"/>
<path d="M647.5 541.625H393V464.25L647.5 541.625Z" stroke="#FFD6A3" stroke-width="2" stroke-linejoin="round"/>
<path d="M393 541.625L647.5 619V541.625H393Z" stroke="#FFD6A3" stroke-width="2" stroke-linejoin="round"/>
<path d="M902 619H647.5L902 541.625V619Z" stroke="#FFD6A3" stroke-width="2" stroke-linejoin="round"/>
<path d="M1665.5 309.5H1920V386.875L1665.5 309.5Z" stroke="#FFD6A3" stroke-width="2" stroke-linejoin="round"/>
<path d="M1665.5 386.875H1411V309.5L1665.5 386.875Z" stroke="#FFD6A3" stroke-width="2" stroke-linejoin="round"/>
<path d="M1411 386.875L1665.5 464.25V386.875H1411Z" stroke="#FFD6A3" stroke-width="2" stroke-linejoin="round"/>
<path d="M1920 464.25L1665.5 386.875H1920V464.25Z" stroke="#FFD6A3" stroke-width="2" stroke-linejoin="round"/>
<path d="M1156.5 309.5L1411 386.875V309.5H1156.5Z" stroke="#FFD6A3" stroke-width="2" stroke-linejoin="round"/>
<path d="M902 309.5H1156.5L902 386.875V309.5Z" stroke="#FFD6A3" stroke-width="2" stroke-linejoin="round"/>
<path d="M1156.5 386.875H1029.25L1156.5 425.563V386.875Z" stroke="#FFD6A3" stroke-width="2" stroke-linejoin="round"/>
<path d="M1029.25 425.563V386.875H902L1029.25 425.563Z" stroke="#FFD6A3" stroke-width="2" stroke-linejoin="round"/>
<path d="M902 425.562V464.25H1029.25L902 425.562Z" stroke="#FFD6A3" stroke-width="2" stroke-linejoin="round"/>
<path d="M1156.5 425.562V464.25L1029.25 425.562H1156.5Z" stroke="#FFD6A3" stroke-width="2" stroke-linejoin="round"/>
<path d="M1411 464.25L1156.5 386.875V464.25H1411Z" stroke="#FFD6A3" stroke-width="2" stroke-linejoin="round"/>
<path d="M1411 464.25H1156.5V541.625L1411 464.25Z" stroke="#FFD6A3" stroke-width="2" stroke-linejoin="round"/>
<path d="M1156.5 541.625L902 464.25H1156.5V541.625Z" stroke="#FFD6A3" stroke-width="2" stroke-linejoin="round"/>
<path d="M1156.5 619V541.625H902L1156.5 619Z" stroke="#FFD6A3" stroke-width="2" stroke-linejoin="round"/>
<path d="M1411 619V541.625L1156.5 619H1411Z" stroke="#FFD6A3" stroke-width="2" stroke-linejoin="round"/>
<path d="M1920 619V464.25H1411L1920 619Z" stroke="#FFD6A3" stroke-width="2" stroke-linejoin="round"/>
</svg>
