<svg width="13" height="25" viewBox="0 0 13 25" fill="none" xmlns="http://www.w3.org/2000/svg">
<path d="M1.87997 24.06C1.62663 24.06 1.3733 23.9667 1.1733 23.7667C0.786634 23.38 0.786634 22.74 1.1733 22.3534L9.86663 13.66C10.5066 13.02 10.5066 11.98 9.86663 11.34L1.1733 2.64669C0.786634 2.26003 0.786634 1.62003 1.1733 1.23336C1.55997 0.846693 2.19997 0.846693 2.58663 1.23336L11.28 9.92669C11.96 10.6067 12.3466 11.5267 12.3466 12.5C12.3466 13.4734 11.9733 14.3934 11.28 15.0734L2.58663 23.7667C2.38663 23.9534 2.1333 24.06 1.87997 24.06Z" fill="#F7F8FA"/>
</svg>
