<svg width="20" height="21" viewBox="0 0 20 21" fill="none" xmlns="http://www.w3.org/2000/svg">
<path d="M14.166 3.4165H5.83268C3.33268 3.4165 1.66602 4.6665 1.66602 7.58317V13.4165C1.66602 16.3332 3.33268 17.5832 5.83268 17.5832H14.166C16.666 17.5832 18.3327 16.3332 18.3327 13.4165V7.58317C18.3327 4.6665 16.666 3.4165 14.166 3.4165ZM14.5577 8.4915L11.9493 10.5748C11.3993 11.0165 10.6993 11.2332 9.99935 11.2332C9.29935 11.2332 8.59102 11.0165 8.04935 10.5748L5.44102 8.4915C5.17435 8.27484 5.13268 7.87484 5.34102 7.60817C5.55768 7.3415 5.94935 7.2915 6.21602 7.50817L8.82435 9.5915C9.45768 10.0998 10.5327 10.0998 11.166 9.5915L13.7744 7.50817C14.041 7.2915 14.441 7.33317 14.6493 7.60817C14.866 7.87484 14.8243 8.27484 14.5577 8.4915Z" fill="#696969"/>
</svg>
