<svg width="20" height="20" viewBox="0 0 20 20" fill="none" xmlns="http://www.w3.org/2000/svg">
<path d="M8.99115 12.6416C8.82448 12.6416 8.66615 12.5749 8.54948 12.4582L6.53281 10.4416C6.29115 10.1999 6.29115 9.7999 6.53281 9.55824C6.77448 9.31657 7.17448 9.31657 7.41615 9.55824L8.99115 11.1332L12.5745 7.5499C12.8161 7.30824 13.2161 7.30824 13.4578 7.5499C13.6995 7.79157 13.6995 8.19157 13.4578 8.43324L9.43281 12.4582C9.31615 12.5749 9.15781 12.6416 8.99115 12.6416Z" fill="white"/>
<path d="M9.99909 18.9582C9.47409 18.9582 8.94909 18.7832 8.54075 18.4332L7.22409 17.2998C7.09075 17.1832 6.75742 17.0665 6.58242 17.0665H5.14909C3.91575 17.0665 2.91576 16.0665 2.91576 14.8332V13.4082C2.91576 13.2332 2.79909 12.9082 2.68242 12.7748L1.55742 11.4498C0.874089 10.6415 0.874089 9.3665 1.55742 8.55817L2.68242 7.23317C2.79909 7.09984 2.91576 6.77484 2.91576 6.59984V5.1665C2.91576 3.93317 3.91575 2.93317 5.14909 2.93317H6.59075C6.76575 2.93317 7.09909 2.80817 7.23242 2.69984L8.54909 1.5665C9.36576 0.866504 10.6408 0.866504 11.4574 1.5665L12.7741 2.69984C12.9074 2.8165 13.2408 2.93317 13.4158 2.93317H14.8324C16.0658 2.93317 17.0658 3.93317 17.0658 5.1665V6.58317C17.0658 6.75817 17.1908 7.0915 17.3074 7.22484L18.4408 8.5415C19.1408 9.35817 19.1408 10.6332 18.4408 11.4498L17.3074 12.7665C17.1908 12.8998 17.0658 13.2332 17.0658 13.4082V14.8248C17.0658 16.0582 16.0658 17.0582 14.8324 17.0582H13.4158C13.2408 17.0582 12.9074 17.1832 12.7741 17.2915L11.4574 18.4248C11.0491 18.7832 10.5241 18.9582 9.99909 18.9582ZM5.14909 4.18317C4.60742 4.18317 4.16576 4.62484 4.16576 5.1665V6.5915C4.16576 7.0665 3.94076 7.67484 3.63242 8.03317L2.50742 9.35817C2.21576 9.69984 2.21576 10.2915 2.50742 10.6332L3.63242 11.9582C3.94076 12.3248 4.16576 12.9248 4.16576 13.3998V14.8248C4.16576 15.3665 4.60742 15.8082 5.14909 15.8082H6.59075C7.07409 15.8082 7.68242 16.0332 8.04909 16.3498L9.36576 17.4832C9.70742 17.7748 10.3074 17.7748 10.6491 17.4832L11.9658 16.3498C12.3324 16.0415 12.9408 15.8082 13.4241 15.8082H14.8408C15.3824 15.8082 15.8241 15.3665 15.8241 14.8248V13.4082C15.8241 12.9248 16.0491 12.3165 16.3658 11.9498L17.4991 10.6332C17.7908 10.2915 17.7908 9.6915 17.4991 9.34984L16.3658 8.03317C16.0491 7.6665 15.8241 7.05817 15.8241 6.57484V5.1665C15.8241 4.62484 15.3824 4.18317 14.8408 4.18317H13.4241C12.9408 4.18317 12.3324 3.95817 11.9658 3.6415L10.6491 2.50817C10.3074 2.2165 9.70742 2.2165 9.36576 2.50817L8.04909 3.64984C7.68242 3.95817 7.06575 4.18317 6.59075 4.18317H5.14909Z" fill="white"/>
</svg>
