<svg width="46" height="48" viewBox="0 0 46 48" fill="none" xmlns="http://www.w3.org/2000/svg">
<path d="M38.1445 14.3867C38.5156 14.3867 38.8359 14.6133 38.9766 14.9336L45.0273 24.293C45.1055 24.4414 45.1367 24.6016 45.125 24.7539L44.7227 47.0938C44.7227 47.5898 44.3203 47.9961 43.8203 47.9961V48H1.38672C0.886719 48 0.480469 47.5938 0.480469 47.0938L0 24.7109V24.7031V24.6953V24.6875V24.6797V24.6719V24.668V24.6602V24.6484V24.6445V24.6289V24.625V24.6211V24.6055V24.6016V24.5977L0.00390625 24.582V24.5742L0.0078125 24.5586L0.0117188 24.543V24.5352L0.015625 24.5195L0.0195313 24.5117V24.5039V24.4961V24.4922V24.4883L0.0234375 24.4805L0.0273438 24.4727V24.4688V24.4648L0.03125 24.457L0.0390625 24.4531V24.4492V24.4453L0.0429688 24.4375V24.4336L0.046875 24.4219L0.0507813 24.4141L0.0546875 24.4062L0.0585938 24.3984L0.0625 24.3906L0.0664063 24.3828L0.0703125 24.375L0.0742188 24.3672L0.0820312 24.3516L0.0859375 24.3438L0.09375 24.332L0.0976563 24.3242L0.101563 24.3203V24.3164L0.105469 24.3086L0.109375 24.3008L0.113281 24.293L0.117188 24.2852L0.125 24.2734L0.128906 24.2656L0.136719 24.2539L0.140625 24.2461L0.144531 24.2383L0.148438 24.2305L6.28125 14.8594C6.44141 14.5547 6.75781 14.3789 7.08203 14.3789V14.375H19.2109L26.2344 0L37.7461 5.15234L33.3008 14.3867H38.1445ZM18.3125 16.1992H7.60938L2.40234 23.8125H42.7461L37.5977 16.1953H32.4336L31.0703 19.0312H32.0703C32.5703 19.0312 32.9766 19.4375 32.9766 19.9375C32.9766 20.4375 32.5703 20.8438 32.0703 20.8438H14.3906C13.8906 20.8438 13.4844 20.4375 13.4844 19.9375C13.4844 19.4375 13.8906 19.0312 14.3906 19.0391H15.9141H16.9219L18.3125 16.1992ZM28.9219 19.0352L34.2734 7.87109C33.375 7.43359 33.0039 6.34375 33.4414 5.44531L28.5977 3.55469C28.1602 4.45312 27.0703 4.82422 26.1719 4.38672L19.2734 18.4883C19.543 18.6211 19.7656 18.8125 19.9336 19.0391C22.8477 19.0352 26.0781 19.0352 28.9219 19.0352ZM24.125 12.2461C24.8242 10.8164 26.543 10.2266 27.9727 10.9258C29.4023 11.625 29.9922 13.3438 29.293 14.7734C28.5938 16.2031 26.875 16.793 25.4453 16.0938C24.0156 15.3984 23.4258 13.6758 24.125 12.2461ZM1.80859 25.6211L2.28906 46.1875H42.918L43.3242 25.6211H1.80859Z" fill="white"/>
</svg>
